<svg width="56" height="56" viewBox="0 0 56 56" fill="none" xmlns="http://www.w3.org/2000/svg">
<path d="M46.667 34.4172H9.33366C7.63223 34.416 6.00085 33.7396 4.79776 32.5365C3.59467 31.3334 2.91823 29.702 2.91699 28.0006V16.3339C2.91823 14.6325 3.59467 13.0011 4.79776 11.798C6.00085 10.5949 7.63223 9.91847 9.33366 9.91724H46.667C48.3684 9.91847 49.9998 10.5949 51.2029 11.798C52.406 13.0011 53.0824 14.6325 53.0837 16.3339V28.0006C53.0824 29.702 52.406 31.3334 51.2029 32.5365C49.9998 33.7396 48.3684 34.416 46.667 34.4172ZM9.33366 13.4172C8.56049 13.4185 7.81934 13.7262 7.27263 14.2729C6.72591 14.8196 6.41823 15.5607 6.41699 16.3339V28.0006C6.41823 28.7737 6.72591 29.5149 7.27263 30.0616C7.81934 30.6083 8.56049 30.916 9.33366 30.9172H46.667C47.4402 30.916 48.1813 30.6083 48.728 30.0616C49.2747 29.5149 49.5824 28.7737 49.5837 28.0006V16.3339C49.5824 15.5607 49.2747 14.8196 48.728 14.2729C48.1813 13.7262 47.4402 13.4185 46.667 13.4172H9.33366Z" fill="white"/>
<path d="M39.6673 13.4172H16.334C15.8699 13.4172 15.4247 13.2329 15.0965 12.9047C14.7684 12.5765 14.584 12.1314 14.584 11.6672V7.00057C14.5852 5.91798 15.0158 4.88009 15.7813 4.11458C16.5468 3.34908 17.5847 2.91847 18.6673 2.91724H37.334C38.4166 2.91847 39.4545 3.34908 40.22 4.11458C40.9855 4.88009 41.4161 5.91798 41.4173 7.00057V11.6672C41.4173 12.1314 41.2329 12.5765 40.9048 12.9047C40.5766 13.2329 40.1314 13.4172 39.6673 13.4172ZM18.084 9.91724H37.9173V7.00057C37.9173 6.84586 37.8559 6.69749 37.7465 6.58809C37.6371 6.47869 37.4887 6.41724 37.334 6.41724H18.6673C18.5126 6.41724 18.3642 6.47869 18.2548 6.58809C18.1454 6.69749 18.084 6.84586 18.084 7.00057V9.91724Z" fill="white"/>
<path d="M44.3333 53.0833H11.6667C9.96543 53.0814 8.3344 52.4048 7.13144 51.2018C5.92849 49.9989 5.25185 48.3679 5.25 46.6666V32.0366C5.25 31.5725 5.43437 31.1274 5.76256 30.7992C6.09075 30.471 6.53587 30.2866 7 30.2866C7.46413 30.2866 7.90925 30.471 8.23744 30.7992C8.56563 31.1274 8.75 31.5725 8.75 32.0366V46.6666C8.75123 47.4398 9.05892 48.1809 9.60563 48.7277C10.1523 49.2744 10.8935 49.5821 11.6667 49.5833H44.3333C45.1065 49.5821 45.8476 49.2744 46.3944 48.7277C46.9411 48.1809 47.2488 47.4398 47.25 46.6666V32.0366C47.25 31.5725 47.4344 31.1274 47.7626 30.7992C48.0907 30.471 48.5359 30.2866 49 30.2866C49.4641 30.2866 49.9092 30.471 50.2374 30.7992C50.5656 31.1274 50.75 31.5725 50.75 32.0366V46.6666C50.7481 48.3679 50.0715 49.9989 48.8686 51.2018C47.6656 52.4048 46.0346 53.0814 44.3333 53.0833Z" fill="white"/>
<path d="M18.667 36.7511C18.2029 36.7511 17.7577 36.5668 17.4296 36.2386C17.1014 35.9104 16.917 35.4653 16.917 35.0011V30.3345C16.917 29.8703 17.1014 29.4252 17.4296 29.097C17.7577 28.7688 18.2029 28.5845 18.667 28.5845C19.1311 28.5845 19.5762 28.7688 19.9044 29.097C20.2326 29.4252 20.417 29.8703 20.417 30.3345V35.0011C20.417 35.4653 20.2326 35.9104 19.9044 36.2386C19.5762 36.5668 19.1311 36.7511 18.667 36.7511Z" fill="white"/>
<path d="M37.334 36.7511C36.8699 36.7511 36.4247 36.5668 36.0965 36.2386C35.7684 35.9104 35.584 35.4653 35.584 35.0011V30.3345C35.584 29.8703 35.7684 29.4252 36.0965 29.097C36.4247 28.7688 36.8699 28.5845 37.334 28.5845C37.7981 28.5845 38.2432 28.7688 38.5714 29.097C38.8996 29.4252 39.084 29.8703 39.084 30.3345V35.0011C39.084 35.4653 38.8996 35.9104 38.5714 36.2386C38.2432 36.5668 37.7981 36.7511 37.334 36.7511Z" fill="white"/>
</svg>
