<svg width="50" height="50" viewBox="0 0 50 50" fill="none" xmlns="http://www.w3.org/2000/svg">
<path d="M25.0003 30.7339C24.2865 30.7346 23.5866 30.5362 22.9794 30.161L5.78151 19.5048C5.28569 19.2154 4.87435 18.8011 4.58847 18.3033C4.30259 17.8054 4.15216 17.2414 4.15216 16.6673C4.15216 16.0932 4.30259 15.5291 4.58847 15.0313C4.87435 14.5334 5.28569 14.1192 5.78151 13.8298L22.9836 3.17144C23.5904 2.79696 24.2893 2.59863 25.0023 2.59863C25.7154 2.59863 26.4143 2.79696 27.0211 3.17144L44.219 13.8277C44.7148 14.1171 45.1262 14.5313 45.4121 15.0292C45.6979 15.527 45.8484 16.0911 45.8484 16.6652C45.8484 17.2393 45.6979 17.8034 45.4121 18.3012C45.1262 18.7991 44.7148 19.2133 44.219 19.5027L27.0169 30.161C26.4112 30.5361 25.7127 30.7345 25.0003 30.7339ZM25.0003 5.73394C24.8707 5.73245 24.7432 5.7663 24.6315 5.83186L7.42526 16.486C7.33568 16.5423 7.27734 16.611 7.27734 16.6673C7.27734 16.7235 7.33568 16.7923 7.42526 16.8485L24.6273 27.5006C24.74 27.5661 24.8679 27.6006 24.9982 27.6006C25.1285 27.6006 25.2564 27.5661 25.369 27.5006L42.5753 16.8423C42.6648 16.786 42.7232 16.7173 42.7232 16.661C42.7232 16.6048 42.6648 16.536 42.5753 16.4798L25.3732 5.83394C25.2607 5.76576 25.1318 5.72973 25.0003 5.72977V5.73394Z" fill="white"/>
<path d="M25.0005 38.6C24.2552 38.6004 23.5278 38.3713 22.9172 37.9438L3.27971 24.1938C3.10426 24.0793 2.95363 23.9307 2.83677 23.7568C2.71991 23.5829 2.63921 23.3873 2.59947 23.1816C2.55973 22.9759 2.56177 22.7644 2.60545 22.5595C2.64913 22.3546 2.73357 22.1605 2.85375 21.9889C2.97393 21.8173 3.12739 21.6717 3.30501 21.5606C3.48262 21.4495 3.68077 21.3752 3.88765 21.3422C4.09454 21.3093 4.30595 21.3182 4.5093 21.3686C4.71266 21.419 4.90381 21.5097 5.07138 21.6355L24.7089 35.3855C24.7962 35.4474 24.9007 35.4807 25.0078 35.4807C25.115 35.4807 25.2194 35.4474 25.3068 35.3855L44.9464 21.6355C45.1139 21.5097 45.3051 21.419 45.5084 21.3686C45.7118 21.3182 45.9232 21.3093 46.1301 21.3422C46.337 21.3752 46.5351 21.4495 46.7127 21.5606C46.8904 21.6717 47.0438 21.8173 47.164 21.9889C47.2842 22.1605 47.3686 22.3546 47.4123 22.5595C47.456 22.7644 47.458 22.9759 47.4183 23.1816C47.3785 23.3873 47.2978 23.5829 47.181 23.7568C47.0641 23.9307 46.9135 24.0793 46.738 24.1938L27.0839 37.9438C26.4735 38.3717 25.746 38.6008 25.0005 38.6Z" fill="white"/>
<path d="M25.0005 46.9328C24.2552 46.9332 23.5278 46.7041 22.9172 46.2766L3.27971 32.5266C3.10426 32.4121 2.95363 32.2635 2.83677 32.0896C2.71991 31.9157 2.63921 31.7201 2.59947 31.5144C2.55973 31.3087 2.56177 31.0971 2.60545 30.8922C2.64913 30.6873 2.73357 30.4933 2.85375 30.3217C2.97393 30.1501 3.12739 30.0044 3.30501 29.8933C3.48262 29.7822 3.68077 29.708 3.88765 29.675C4.09454 29.642 4.30595 29.651 4.5093 29.7014C4.71266 29.7517 4.90381 29.8425 5.07138 29.9682L24.7089 43.7182C24.7962 43.7802 24.9007 43.8135 25.0078 43.8135C25.115 43.8135 25.2194 43.7802 25.3068 43.7182L44.9464 29.9682C45.1139 29.8425 45.3051 29.7517 45.5084 29.7014C45.7118 29.651 45.9232 29.642 46.1301 29.675C46.337 29.708 46.5351 29.7822 46.7127 29.8933C46.8904 30.0044 47.0438 30.1501 47.164 30.3217C47.2842 30.4933 47.3686 30.6873 47.4123 30.8922C47.456 31.0971 47.458 31.3087 47.4183 31.5144C47.3785 31.7201 47.2978 31.9157 47.181 32.0896C47.0641 32.2635 46.9135 32.4121 46.738 32.5266L27.0839 46.2766C26.4735 46.7044 25.746 46.9336 25.0005 46.9328Z" fill="white"/>
</svg>
