<svg width="108" height="118" viewBox="0 0 108 118" fill="none" xmlns="http://www.w3.org/2000/svg">
<mask id="path-1-outside-1_405_10253" maskUnits="userSpaceOnUse" x="0" y="0" width="108" height="118" fill="black">
<rect fill="white" width="108" height="118"/>
<path d="M5.43942 1H4.75644V9.12562H5.43942V1Z"/>
<path d="M9.19588 116.323H1V117H9.19588V116.323Z"/>
<path d="M4.04781 19.5841L3.40423 19.8109L6.14903 27.4676L6.79261 27.2409L4.04781 19.5841Z"/>
<path d="M2.92568 38.8587L2.37793 39.2632L7.27414 45.78L7.8219 45.3755L2.92568 38.8587Z"/>
<path d="M2.16477 58.0739L1.7284 58.5948L8.03349 63.7863L8.46985 63.2653L2.16477 58.0739Z"/>
<path d="M1.58303 77.3957L1.2776 78.0013L8.60799 81.6351L8.91343 81.0295L1.58303 77.3957Z"/>
<path d="M1.19744 96.7701L1.03796 97.4286L9.00763 99.3259L9.16711 98.6674L1.19744 96.7701Z"/>
<path d="M33.6469 116.323H25.451V117H33.6469V116.323Z"/>
<path d="M27.3773 38.8578L26.8295 39.2623L31.7257 45.7791L32.2735 45.3745L27.3773 38.8578Z"/>
<path d="M26.6162 58.074L26.1798 58.5949L32.4849 63.7864L32.9213 63.2655L26.6162 58.074Z"/>
<path d="M26.0334 77.3972L25.728 78.0028L33.0584 81.6366L33.3638 81.031L26.0334 77.3972Z"/>
<path d="M25.6482 96.7693L25.4887 97.4278L33.4584 99.3251L33.6179 98.6666L25.6482 96.7693Z"/>
<path d="M58.0979 116.323H49.9021V117H58.0979V116.323Z"/>
<path d="M51.8288 38.8567L51.2811 39.2612L56.1773 45.778L56.725 45.3735L51.8288 38.8567Z"/>
<path d="M51.0677 58.0743L50.6313 58.5952L56.9364 63.7867L57.3728 63.2658L51.0677 58.0743Z"/>
<path d="M50.484 77.3979L50.1786 78.0036L57.509 81.6373L57.8144 81.0317L50.484 77.3979Z"/>
<path d="M50.0989 96.7683L49.9394 97.4268L57.9091 99.3241L58.0686 98.6656L50.0989 96.7683Z"/>
<path d="M82.549 116.323H74.3531V117H82.549V116.323Z"/>
<path d="M76.2764 38.862L75.7287 39.2664L80.6241 45.7832L81.1718 45.3787L76.2764 38.862Z"/>
<path d="M75.5191 58.0745L75.0827 58.5954L81.3878 63.7869L81.8242 63.266L75.5191 58.0745Z"/>
<path d="M74.9344 77.3978L74.6289 78.0034L81.9593 81.6372L82.2648 81.0316L74.9344 77.3978Z"/>
<path d="M74.5494 96.7669L74.3899 97.4254L82.3596 99.3227L82.5191 98.6643L74.5494 96.7669Z"/>
<path d="M107 116.323H98.8041V117H107V116.323Z"/>
<path d="M100.732 38.8546L100.184 39.2592L105.08 45.7759L105.628 45.3714L100.732 38.8546Z"/>
<path d="M99.9706 58.0747L99.5342 58.5956L105.839 63.787L106.276 63.2661L99.9706 58.0747Z"/>
<path d="M99.3853 77.3995L99.0799 78.0051L106.41 81.6389L106.716 81.0333L99.3853 77.3995Z"/>
<path d="M99.0004 96.7666L98.8409 97.425L106.811 99.3224L106.97 98.6639L99.0004 96.7666Z"/>
<path d="M28.5 19.5843L27.8564 19.8111L30.6012 27.4678L31.2448 27.2411L28.5 19.5843Z"/>
<path d="M52.9523 19.5845L52.3087 19.8113L55.0535 27.4681L55.6971 27.2413L52.9523 19.5845Z"/>
<path d="M77.3967 19.5844L76.7532 19.8112L79.498 27.4671L80.1415 27.2403L77.3967 19.5844Z"/>
<path d="M101.857 19.5849L101.213 19.8117L103.958 27.4684L104.601 27.2417L101.857 19.5849Z"/>
<path d="M29.7163 1H29.0333V9.12562H29.7163V1Z"/>
<path d="M53.9932 1H53.3102V9.12562H53.9932V1Z"/>
<path d="M78.27 1H77.5871V9.12562H78.27V1Z"/>
<path d="M102.547 1H101.864V9.12562H102.547V1Z"/>
</mask>
<path d="M5.43942 1H4.75644V9.12562H5.43942V1Z" fill="#DCFD68"/>
<path d="M9.19588 116.323H1V117H9.19588V116.323Z" fill="#DCFD68"/>
<path d="M4.04781 19.5841L3.40423 19.8109L6.14903 27.4676L6.79261 27.2409L4.04781 19.5841Z" fill="#DCFD68"/>
<path d="M2.92568 38.8587L2.37793 39.2632L7.27414 45.78L7.8219 45.3755L2.92568 38.8587Z" fill="#DCFD68"/>
<path d="M2.16477 58.0739L1.7284 58.5948L8.03349 63.7863L8.46985 63.2653L2.16477 58.0739Z" fill="#DCFD68"/>
<path d="M1.58303 77.3957L1.2776 78.0013L8.60799 81.6351L8.91343 81.0295L1.58303 77.3957Z" fill="#DCFD68"/>
<path d="M1.19744 96.7701L1.03796 97.4286L9.00763 99.3259L9.16711 98.6674L1.19744 96.7701Z" fill="#DCFD68"/>
<path d="M33.6469 116.323H25.451V117H33.6469V116.323Z" fill="#DCFD68"/>
<path d="M27.3773 38.8578L26.8295 39.2623L31.7257 45.7791L32.2735 45.3745L27.3773 38.8578Z" fill="#DCFD68"/>
<path d="M26.6162 58.074L26.1798 58.5949L32.4849 63.7864L32.9213 63.2655L26.6162 58.074Z" fill="#DCFD68"/>
<path d="M26.0334 77.3972L25.728 78.0028L33.0584 81.6366L33.3638 81.031L26.0334 77.3972Z" fill="#DCFD68"/>
<path d="M25.6482 96.7693L25.4887 97.4278L33.4584 99.3251L33.6179 98.6666L25.6482 96.7693Z" fill="#DCFD68"/>
<path d="M58.0979 116.323H49.9021V117H58.0979V116.323Z" fill="#DCFD68"/>
<path d="M51.8288 38.8567L51.2811 39.2612L56.1773 45.778L56.725 45.3735L51.8288 38.8567Z" fill="#DCFD68"/>
<path d="M51.0677 58.0743L50.6313 58.5952L56.9364 63.7867L57.3728 63.2658L51.0677 58.0743Z" fill="#DCFD68"/>
<path d="M50.484 77.3979L50.1786 78.0036L57.509 81.6373L57.8144 81.0317L50.484 77.3979Z" fill="#DCFD68"/>
<path d="M50.0989 96.7683L49.9394 97.4268L57.9091 99.3241L58.0686 98.6656L50.0989 96.7683Z" fill="#DCFD68"/>
<path d="M82.549 116.323H74.3531V117H82.549V116.323Z" fill="#DCFD68"/>
<path d="M76.2764 38.862L75.7287 39.2664L80.6241 45.7832L81.1718 45.3787L76.2764 38.862Z" fill="#DCFD68"/>
<path d="M75.5191 58.0745L75.0827 58.5954L81.3878 63.7869L81.8242 63.266L75.5191 58.0745Z" fill="#DCFD68"/>
<path d="M74.9344 77.3978L74.6289 78.0034L81.9593 81.6372L82.2648 81.0316L74.9344 77.3978Z" fill="#DCFD68"/>
<path d="M74.5494 96.7669L74.3899 97.4254L82.3596 99.3227L82.5191 98.6643L74.5494 96.7669Z" fill="#DCFD68"/>
<path d="M107 116.323H98.8041V117H107V116.323Z" fill="#DCFD68"/>
<path d="M100.732 38.8546L100.184 39.2592L105.08 45.7759L105.628 45.3714L100.732 38.8546Z" fill="#DCFD68"/>
<path d="M99.9706 58.0747L99.5342 58.5956L105.839 63.787L106.276 63.2661L99.9706 58.0747Z" fill="#DCFD68"/>
<path d="M99.3853 77.3995L99.0799 78.0051L106.41 81.6389L106.716 81.0333L99.3853 77.3995Z" fill="#DCFD68"/>
<path d="M99.0004 96.7666L98.8409 97.425L106.811 99.3224L106.97 98.6639L99.0004 96.7666Z" fill="#DCFD68"/>
<path d="M28.5 19.5843L27.8564 19.8111L30.6012 27.4678L31.2448 27.2411L28.5 19.5843Z" fill="#DCFD68"/>
<path d="M52.9523 19.5845L52.3087 19.8113L55.0535 27.4681L55.6971 27.2413L52.9523 19.5845Z" fill="#DCFD68"/>
<path d="M77.3967 19.5844L76.7532 19.8112L79.498 27.4671L80.1415 27.2403L77.3967 19.5844Z" fill="#DCFD68"/>
<path d="M101.857 19.5849L101.213 19.8117L103.958 27.4684L104.601 27.2417L101.857 19.5849Z" fill="#DCFD68"/>
<path d="M29.7163 1H29.0333V9.12562H29.7163V1Z" fill="#DCFD68"/>
<path d="M53.9932 1H53.3102V9.12562H53.9932V1Z" fill="#DCFD68"/>
<path d="M78.27 1H77.5871V9.12562H78.27V1Z" fill="#DCFD68"/>
<path d="M102.547 1H101.864V9.12562H102.547V1Z" fill="#DCFD68"/>
<path d="M5.43942 1H4.75644V9.12562H5.43942V1Z" stroke="#DCFD68" mask="url(#path-1-outside-1_405_10253)"/>
<path d="M9.19588 116.323H1V117H9.19588V116.323Z" stroke="#DCFD68" mask="url(#path-1-outside-1_405_10253)"/>
<path d="M4.04781 19.5841L3.40423 19.8109L6.14903 27.4676L6.79261 27.2409L4.04781 19.5841Z" stroke="#DCFD68" mask="url(#path-1-outside-1_405_10253)"/>
<path d="M2.92568 38.8587L2.37793 39.2632L7.27414 45.78L7.8219 45.3755L2.92568 38.8587Z" stroke="#DCFD68" mask="url(#path-1-outside-1_405_10253)"/>
<path d="M2.16477 58.0739L1.7284 58.5948L8.03349 63.7863L8.46985 63.2653L2.16477 58.0739Z" stroke="#DCFD68" mask="url(#path-1-outside-1_405_10253)"/>
<path d="M1.58303 77.3957L1.2776 78.0013L8.60799 81.6351L8.91343 81.0295L1.58303 77.3957Z" stroke="#DCFD68" mask="url(#path-1-outside-1_405_10253)"/>
<path d="M1.19744 96.7701L1.03796 97.4286L9.00763 99.3259L9.16711 98.6674L1.19744 96.7701Z" stroke="#DCFD68" mask="url(#path-1-outside-1_405_10253)"/>
<path d="M33.6469 116.323H25.451V117H33.6469V116.323Z" stroke="#DCFD68" mask="url(#path-1-outside-1_405_10253)"/>
<path d="M27.3773 38.8578L26.8295 39.2623L31.7257 45.7791L32.2735 45.3745L27.3773 38.8578Z" stroke="#DCFD68" mask="url(#path-1-outside-1_405_10253)"/>
<path d="M26.6162 58.074L26.1798 58.5949L32.4849 63.7864L32.9213 63.2655L26.6162 58.074Z" stroke="#DCFD68" mask="url(#path-1-outside-1_405_10253)"/>
<path d="M26.0334 77.3972L25.728 78.0028L33.0584 81.6366L33.3638 81.031L26.0334 77.3972Z" stroke="#DCFD68" mask="url(#path-1-outside-1_405_10253)"/>
<path d="M25.6482 96.7693L25.4887 97.4278L33.4584 99.3251L33.6179 98.6666L25.6482 96.7693Z" stroke="#DCFD68" mask="url(#path-1-outside-1_405_10253)"/>
<path d="M58.0979 116.323H49.9021V117H58.0979V116.323Z" stroke="#DCFD68" mask="url(#path-1-outside-1_405_10253)"/>
<path d="M51.8288 38.8567L51.2811 39.2612L56.1773 45.778L56.725 45.3735L51.8288 38.8567Z" stroke="#DCFD68" mask="url(#path-1-outside-1_405_10253)"/>
<path d="M51.0677 58.0743L50.6313 58.5952L56.9364 63.7867L57.3728 63.2658L51.0677 58.0743Z" stroke="#DCFD68" mask="url(#path-1-outside-1_405_10253)"/>
<path d="M50.484 77.3979L50.1786 78.0036L57.509 81.6373L57.8144 81.0317L50.484 77.3979Z" stroke="#DCFD68" mask="url(#path-1-outside-1_405_10253)"/>
<path d="M50.0989 96.7683L49.9394 97.4268L57.9091 99.3241L58.0686 98.6656L50.0989 96.7683Z" stroke="#DCFD68" mask="url(#path-1-outside-1_405_10253)"/>
<path d="M82.549 116.323H74.3531V117H82.549V116.323Z" stroke="#DCFD68" mask="url(#path-1-outside-1_405_10253)"/>
<path d="M76.2764 38.862L75.7287 39.2664L80.6241 45.7832L81.1718 45.3787L76.2764 38.862Z" stroke="#DCFD68" mask="url(#path-1-outside-1_405_10253)"/>
<path d="M75.5191 58.0745L75.0827 58.5954L81.3878 63.7869L81.8242 63.266L75.5191 58.0745Z" stroke="#DCFD68" mask="url(#path-1-outside-1_405_10253)"/>
<path d="M74.9344 77.3978L74.6289 78.0034L81.9593 81.6372L82.2648 81.0316L74.9344 77.3978Z" stroke="#DCFD68" mask="url(#path-1-outside-1_405_10253)"/>
<path d="M74.5494 96.7669L74.3899 97.4254L82.3596 99.3227L82.5191 98.6643L74.5494 96.7669Z" stroke="#DCFD68" mask="url(#path-1-outside-1_405_10253)"/>
<path d="M107 116.323H98.8041V117H107V116.323Z" stroke="#DCFD68" mask="url(#path-1-outside-1_405_10253)"/>
<path d="M100.732 38.8546L100.184 39.2592L105.08 45.7759L105.628 45.3714L100.732 38.8546Z" stroke="#DCFD68" mask="url(#path-1-outside-1_405_10253)"/>
<path d="M99.9706 58.0747L99.5342 58.5956L105.839 63.787L106.276 63.2661L99.9706 58.0747Z" stroke="#DCFD68" mask="url(#path-1-outside-1_405_10253)"/>
<path d="M99.3853 77.3995L99.0799 78.0051L106.41 81.6389L106.716 81.0333L99.3853 77.3995Z" stroke="#DCFD68" mask="url(#path-1-outside-1_405_10253)"/>
<path d="M99.0004 96.7666L98.8409 97.425L106.811 99.3224L106.97 98.6639L99.0004 96.7666Z" stroke="#DCFD68" mask="url(#path-1-outside-1_405_10253)"/>
<path d="M28.5 19.5843L27.8564 19.8111L30.6012 27.4678L31.2448 27.2411L28.5 19.5843Z" stroke="#DCFD68" mask="url(#path-1-outside-1_405_10253)"/>
<path d="M52.9523 19.5845L52.3087 19.8113L55.0535 27.4681L55.6971 27.2413L52.9523 19.5845Z" stroke="#DCFD68" mask="url(#path-1-outside-1_405_10253)"/>
<path d="M77.3967 19.5844L76.7532 19.8112L79.498 27.4671L80.1415 27.2403L77.3967 19.5844Z" stroke="#DCFD68" mask="url(#path-1-outside-1_405_10253)"/>
<path d="M101.857 19.5849L101.213 19.8117L103.958 27.4684L104.601 27.2417L101.857 19.5849Z" stroke="#DCFD68" mask="url(#path-1-outside-1_405_10253)"/>
<path d="M29.7163 1H29.0333V9.12562H29.7163V1Z" stroke="#DCFD68" mask="url(#path-1-outside-1_405_10253)"/>
<path d="M53.9932 1H53.3102V9.12562H53.9932V1Z" stroke="#DCFD68" mask="url(#path-1-outside-1_405_10253)"/>
<path d="M78.27 1H77.5871V9.12562H78.27V1Z" stroke="#DCFD68" mask="url(#path-1-outside-1_405_10253)"/>
<path d="M102.547 1H101.864V9.12562H102.547V1Z" stroke="#DCFD68" mask="url(#path-1-outside-1_405_10253)"/>
</svg>
