<svg width="37" height="159" viewBox="0 0 37 159" fill="none" xmlns="http://www.w3.org/2000/svg">
<g opacity="0.5">
<path d="M31.3243 10.7078C28.5226 10.7078 26.2499 8.44409 26.2499 5.65335C26.2499 2.86261 28.5226 0.598872 31.3243 0.598872C34.1261 0.598872 36.3988 2.86261 36.3988 5.65335C36.3988 8.44409 34.1261 10.7078 31.3243 10.7078Z" fill="white"/>
<path d="M25.6487 35.3095C25.6487 32.1954 28.1979 29.6561 31.3243 29.6561C34.4508 29.6561 37 32.1954 37 35.3095C37 38.4236 34.4508 40.9628 31.3243 40.9628C28.1979 40.9628 25.6487 38.4236 25.6487 35.3095ZM35.7975 35.3095C35.7975 32.8541 33.7894 30.8539 31.3243 30.8539C28.8593 30.8539 26.8512 32.8541 26.8512 35.3095C26.8512 37.7649 28.8593 39.7651 31.3243 39.7651C33.7894 39.7651 35.7975 37.7649 35.7975 35.3095Z" fill="white"/>
<path d="M25.6487 64.9651C25.6487 61.8509 28.1979 59.3117 31.3243 59.3117C34.4508 59.3117 37 61.8509 37 64.9651C37 68.0792 34.4508 70.6184 31.3243 70.6184C28.1979 70.6184 25.6487 68.0792 25.6487 64.9651ZM35.7975 64.9651C35.7975 62.5097 33.7894 60.5095 31.3243 60.5095C28.8593 60.5095 26.8512 62.5097 26.8512 64.9651C26.8512 67.4204 28.8593 69.4207 31.3243 69.4207C33.7894 69.4207 35.7975 67.4204 35.7975 64.9651Z" fill="white"/>
<path d="M31.3243 99.6766C28.5226 99.6766 26.2499 97.4129 26.2499 94.6221C26.2499 91.8314 28.5226 89.5676 31.3243 89.5676C34.1261 89.5676 36.3988 91.8314 36.3988 94.6221C36.3988 97.4129 34.1261 99.6766 31.3243 99.6766Z" fill="white"/>
<path d="M25.6487 124.278C25.6487 121.164 28.1979 118.625 31.3243 118.625C34.4508 118.625 37 121.164 37 124.278C37 127.392 34.4508 129.931 31.3243 129.931C28.1979 129.931 25.6487 127.392 25.6487 124.278ZM35.7975 124.278C35.7975 121.823 33.7894 119.822 31.3243 119.822C28.8593 119.822 26.8512 121.823 26.8512 124.278C26.8512 126.733 28.8593 128.734 31.3243 128.734C33.7894 128.734 35.7975 126.733 35.7975 124.278Z" fill="white"/>
<path d="M31.3243 159C28.5226 159 26.2499 156.736 26.2499 153.946C26.2499 151.155 28.5226 148.891 31.3243 148.891C34.1261 148.891 36.3988 151.155 36.3988 153.946C36.3988 156.736 34.1261 159 31.3243 159Z" fill="white"/>
<path d="M7.38228e-06 5.65335C7.5184e-06 2.53922 2.54924 -1.50589e-06 5.67566 -1.36923e-06C8.80209 -1.23257e-06 11.3513 2.53922 11.3513 5.65335C11.3513 8.76748 8.80209 11.3067 5.67566 11.3067C2.54924 11.3067 7.24616e-06 8.76748 7.38228e-06 5.65335ZM10.1489 5.65335C10.1489 3.19797 8.14073 1.19774 5.67566 1.19774C3.2106 1.19774 1.20248 3.19797 1.20248 5.65335C1.20248 8.10872 3.2106 10.109 5.67566 10.109C8.14073 10.109 10.1489 8.10873 10.1489 5.65335Z" fill="white"/>
<path d="M5.67566 40.364C2.87391 40.364 0.60124 38.1002 0.601241 35.3095C0.601241 32.5187 2.87391 30.255 5.67566 30.255C8.47742 30.255 10.7501 32.5187 10.7501 35.3095C10.7501 38.1002 8.47742 40.364 5.67566 40.364Z" fill="#DCFD68"/>
<path d="M5.67566 70.0196C2.87391 70.0196 0.601239 67.7558 0.601239 64.9651C0.601239 62.1743 2.87391 59.9106 5.67566 59.9106C8.47742 59.9106 10.7501 62.1743 10.7501 64.9651C10.7501 67.7558 8.47742 70.0196 5.67566 70.0196Z" fill="#DCFD68"/>
<path d="M3.49333e-06 94.6221C3.62945e-06 91.508 2.54924 88.9687 5.67566 88.9687C8.80208 88.9687 11.3513 91.508 11.3513 94.6221C11.3513 97.7362 8.80208 100.275 5.67566 100.275C2.54924 100.275 3.35721e-06 97.7362 3.49333e-06 94.6221ZM10.1488 94.6221C10.1488 92.1667 8.14072 90.1665 5.67566 90.1665C3.2106 90.1665 1.20247 92.1667 1.20247 94.6221C1.20247 97.0775 3.2106 99.0777 5.67566 99.0777C8.14072 99.0777 10.1488 97.0775 10.1488 94.6221Z" fill="white"/>
<path d="M5.67566 129.332C2.87391 129.332 0.601237 127.069 0.601237 124.278C0.601237 121.487 2.87391 119.223 5.67566 119.223C8.47741 119.223 10.7501 121.487 10.7501 124.278C10.7501 127.069 8.47741 129.332 5.67566 129.332Z" fill="white"/>
<path d="M5.67566 159C2.8739 159 0.601235 156.736 0.601235 153.946C0.601235 151.155 2.8739 148.891 5.67566 148.891C8.47741 148.891 10.7501 151.155 10.7501 153.946C10.7501 156.736 8.47741 159 5.67566 159Z" fill="#DCFD68"/>
</g>
</svg>
