<svg width="82" height="82" viewBox="0 0 82 82" fill="none" xmlns="http://www.w3.org/2000/svg">
<path d="M41.0027 76.7843L12.5791 48.3664L40.9973 19.9484L37.3153 16.2664L5.21506 48.3664C3.18285 46.3342 3.18285 43.0346 5.21506 41.0024L33.6332 12.579L62.0514 40.9969L65.7334 37.3149L33.6387 5.21502C35.6709 3.18282 38.9705 3.18282 41.0027 5.21502L69.4264 33.6384L41.0082 62.0564L44.6902 65.7383L80.4833 29.94C82.5101 27.9024 82.5046 24.6137 80.4724 22.587L59.4183 1.53303C57.3861 -0.499165 54.0865 -0.499165 52.0542 1.53303L48.3777 5.20955C50.3334 3.25384 53.4637 3.17736 55.5123 4.98557L76.7959 26.269L73.1138 29.951L44.6847 1.52757C42.6525 -0.504628 39.3529 -0.504628 37.3207 1.52757L33.6387 5.20955L29.9458 1.51664C27.9081 -0.510091 24.6194 -0.504628 22.5872 1.52757L1.53304 22.5815C-0.499169 24.6137 -0.499169 27.9133 1.53304 29.9455L5.2096 33.622C3.25387 31.6663 3.17738 28.5361 4.98562 26.4875L26.2692 5.20955L29.9512 8.89154L1.52758 37.3149C-0.504632 39.3471 -0.504632 42.6467 1.52758 44.6789L5.2096 48.3609L1.51665 52.0538C-0.510095 54.0915 -0.504632 57.3801 1.52758 59.4123L22.5817 80.4663C24.6139 82.4985 27.9135 82.4985 29.9458 80.4663L33.6223 76.7898C31.6666 78.7455 28.5363 78.822 26.4932 77.0137L5.2096 55.7303L8.89161 52.0483L37.3153 80.4717C39.3475 82.5039 42.6471 82.5039 44.6793 80.4717L48.3613 76.7898C46.3291 78.822 43.0295 78.822 40.9973 76.7898L41.0027 76.7843Z" fill="#DCFD68"/>
<path d="M80.4669 37.3204L76.7849 33.6384C78.8171 35.6706 78.8171 38.9702 76.7849 41.0024L48.3613 69.4258L19.9431 41.0079L16.2611 44.6898L48.3613 76.7898L52.0542 80.4827C54.0919 82.5094 57.3806 82.5039 59.4073 80.4772L80.4615 59.4232C82.4937 57.3911 82.4937 54.0915 80.4615 52.0593L76.7849 48.3828C78.7407 50.3385 78.8171 53.4687 77.0089 55.5118L55.7253 76.7952L52.0433 73.1132L80.4669 44.6898C82.4992 42.6576 82.4992 39.3581 80.4669 37.3259V37.3204Z" fill="#DCFD68"/>
</svg>
