<svg width="56" height="56" viewBox="0 0 56 56" fill="none" xmlns="http://www.w3.org/2000/svg">
<path d="M51.3337 53.0839H9.33366C7.63223 53.0827 6.00085 52.4062 4.79776 51.2031C3.59467 50.0001 2.91823 48.3687 2.91699 46.6672V4.66724C2.91699 4.20311 3.10137 3.75799 3.42956 3.4298C3.75774 3.10161 4.20286 2.91724 4.66699 2.91724C5.13112 2.91724 5.57624 3.10161 5.90443 3.4298C6.23262 3.75799 6.41699 4.20311 6.41699 4.66724V46.6672C6.41823 47.4404 6.72591 48.1816 7.27263 48.7283C7.81934 49.275 8.56049 49.5827 9.33366 49.5839H51.3337C51.7978 49.5839 52.2429 49.7683 52.5711 50.0965C52.8993 50.4247 53.0837 50.8698 53.0837 51.3339C53.0837 51.798 52.8993 52.2432 52.5711 52.5713C52.2429 52.8995 51.7978 53.0839 51.3337 53.0839Z" fill="white"/>
<path d="M44.334 43.75C43.8699 43.75 43.4247 43.5656 43.0965 43.2374C42.7684 42.9092 42.584 42.4641 42.584 42V21C42.584 20.5359 42.7684 20.0908 43.0965 19.7626C43.4247 19.4344 43.8699 19.25 44.334 19.25C44.7981 19.25 45.2432 19.4344 45.5714 19.7626C45.8996 20.0908 46.084 20.5359 46.084 21V42C46.084 42.4641 45.8996 42.9092 45.5714 43.2374C45.2432 43.5656 44.7981 43.75 44.334 43.75Z" fill="white"/>
<path d="M35 43.75C34.5359 43.75 34.0908 43.5656 33.7626 43.2374C33.4344 42.9092 33.25 42.4641 33.25 42V28C33.25 27.5359 33.4344 27.0908 33.7626 26.7626C34.0908 26.4344 34.5359 26.25 35 26.25C35.4641 26.25 35.9092 26.4344 36.2374 26.7626C36.5656 27.0908 36.75 27.5359 36.75 28V42C36.75 42.4641 36.5656 42.9092 36.2374 43.2374C35.9092 43.5656 35.4641 43.75 35 43.75Z" fill="white"/>
<path d="M25.667 43.75C25.2029 43.75 24.7577 43.5656 24.4296 43.2374C24.1014 42.9092 23.917 42.4641 23.917 42V28C23.917 27.5359 24.1014 27.0908 24.4296 26.7626C24.7577 26.4344 25.2029 26.25 25.667 26.25C26.1311 26.25 26.5762 26.4344 26.9044 26.7626C27.2326 27.0908 27.417 27.5359 27.417 28V42C27.417 42.4641 27.2326 42.9092 26.9044 43.2374C26.5762 43.5656 26.1311 43.75 25.667 43.75Z" fill="white"/>
<path d="M16.334 43.7506C15.8699 43.7506 15.4247 43.5662 15.0965 43.238C14.7684 42.9098 14.584 42.4647 14.584 42.0006V32.6672C14.584 32.2031 14.7684 31.758 15.0965 31.4298C15.4247 31.1016 15.8699 30.9172 16.334 30.9172C16.7981 30.9172 17.2432 31.1016 17.5714 31.4298C17.8996 31.758 18.084 32.2031 18.084 32.6672V42.0006C18.084 42.4647 17.8996 42.9098 17.5714 43.238C17.2432 43.5662 16.7981 43.7506 16.334 43.7506Z" fill="white"/>
<path d="M14.0003 25.0839C13.6408 25.0837 13.29 24.9728 12.9958 24.7663C12.7015 24.5597 12.478 24.2676 12.3556 23.9295C12.2332 23.5915 12.2179 23.2239 12.3118 22.8769C12.4057 22.5298 12.6042 22.2201 12.8803 21.9899L26.8803 10.3232C27.2155 10.0435 27.6433 9.89938 28.0795 9.91925C28.5156 9.93911 28.9286 10.1215 29.237 10.4305L35.0003 16.1915L45.4303 5.76387C45.7621 5.45475 46.2008 5.28646 46.6542 5.29446C47.1076 5.30246 47.5401 5.48612 47.8608 5.80675C48.1814 6.12738 48.3651 6.55995 48.3731 7.01332C48.3811 7.46669 48.2128 7.90546 47.9036 8.2372L36.237 19.9039C36.0747 20.0664 35.8819 20.1954 35.6697 20.2834C35.4575 20.3713 35.23 20.4166 35.0003 20.4166C34.7706 20.4166 34.5431 20.3713 34.3309 20.2834C34.1187 20.1954 33.926 20.0664 33.7636 19.9039L27.893 14.0355L15.1203 24.6779C14.8065 24.9409 14.4098 25.0847 14.0003 25.0839Z" fill="white"/>
</svg>
