<svg width="56" height="56" viewBox="0 0 56 56" fill="none" xmlns="http://www.w3.org/2000/svg">
<path d="M42.0003 36.75H4.66699C4.20286 36.75 3.75774 36.5656 3.42956 36.2374C3.10137 35.9092 2.91699 35.4641 2.91699 35C2.91699 34.5359 3.10137 34.0908 3.42956 33.7626C3.75774 33.4344 4.20286 33.25 4.66699 33.25H42.0003C42.4645 33.25 42.9096 33.4344 43.2378 33.7626C43.566 34.0908 43.7503 34.5359 43.7503 35C43.7503 35.4641 43.566 35.9092 43.2378 36.2374C42.9096 36.5656 42.4645 36.75 42.0003 36.75Z" fill="#0C0C1C"/>
<path d="M46.667 43.75H9.33366C7.63223 43.7488 6.00085 43.0723 4.79776 41.8692C3.59467 40.6661 2.91823 39.0348 2.91699 37.3333V11.6667C2.91823 9.96524 3.59467 8.33385 4.79776 7.13076C6.00085 5.92767 7.63223 5.25124 9.33366 5.25H46.667C48.3684 5.25124 49.9998 5.92767 51.2029 7.13076C52.406 8.33385 53.0824 9.96524 53.0837 11.6667V37.3333C53.0824 39.0348 52.406 40.6661 51.2029 41.8692C49.9998 43.0723 48.3684 43.7488 46.667 43.75ZM9.33366 8.75C8.56049 8.75123 7.81934 9.05892 7.27263 9.60563C6.72591 10.1523 6.41823 10.8935 6.41699 11.6667V37.3333C6.41823 38.1065 6.72591 38.8476 7.27263 39.3944C7.81934 39.9411 8.56049 40.2488 9.33366 40.25H46.667C47.4402 40.2488 48.1813 39.9411 48.728 39.3944C49.2747 38.8476 49.5824 38.1065 49.5837 37.3333V11.6667C49.5824 10.8935 49.2747 10.1523 48.728 9.60563C48.1813 9.05892 47.4402 8.75123 46.667 8.75H9.33366Z" fill="#0C0C1C"/>
<path d="M42 50.75H14C13.5359 50.75 13.0908 50.5656 12.7626 50.2374C12.4344 49.9092 12.25 49.4641 12.25 49C12.25 48.5359 12.4344 48.0908 12.7626 47.7626C13.0908 47.4344 13.5359 47.25 14 47.25H42C42.4641 47.25 42.9092 47.4344 43.2374 47.7626C43.5656 48.0908 43.75 48.5359 43.75 49C43.75 49.4641 43.5656 49.9092 43.2374 50.2374C42.9092 50.5656 42.4641 50.75 42 50.75Z" fill="#0C0C1C"/>
<path d="M37.3337 50.75H18.667C18.2029 50.75 17.7577 50.5656 17.4296 50.2374C17.1014 49.9092 16.917 49.4641 16.917 49V42C16.917 41.5359 17.1014 41.0908 17.4296 40.7626C17.7577 40.4344 18.2029 40.25 18.667 40.25H37.3337C37.7978 40.25 38.2429 40.4344 38.5711 40.7626C38.8993 41.0908 39.0837 41.5359 39.0837 42V49C39.0837 49.4641 38.8993 49.9092 38.5711 50.2374C38.2429 50.5656 37.7978 50.75 37.3337 50.75ZM20.417 47.25H35.5837V43.75H20.417V47.25Z" fill="#0C0C1C"/>
</svg>
