<svg width="28" height="28" viewBox="0 0 28 28" fill="none" xmlns="http://www.w3.org/2000/svg">
<g clip-path="url(#clip0_405_10450)">
<path d="M19.7412 20.5271C19.7678 20.4472 19.7812 20.3673 19.7945 20.3007C19.981 19.5414 20.0742 18.7555 20.0742 17.9696C20.0742 17.823 20.0742 17.6632 20.0742 17.5167C20.0742 17.3968 20.0609 17.2902 20.0476 17.1703C19.6613 17.7165 19.2217 18.236 18.7421 18.7155C17.4767 19.981 15.9981 20.9134 14.4263 21.5128C14.3463 21.5395 14.2531 21.5661 14.1732 21.6061C13.5071 21.8459 12.8278 22.019 12.1351 22.1389C11.4424 22.2588 10.7498 22.3121 10.0571 22.3121C9.804 22.3121 9.5509 22.3121 9.29781 22.2854C9.16461 22.2854 9.01808 22.2588 8.88487 22.2588C8.23216 22.1922 7.56613 22.0723 6.92674 21.9125H6.91342C4.88868 21.3796 2.95718 20.314 1.37203 18.7155C0.879164 18.2226 0.452903 17.7165 0.0666041 17.1703C0.0399628 17.4367 0.0399628 17.7031 0.0399628 17.9696C0.0399628 20.4472 0.945767 22.9248 2.7707 24.8563C2.8373 24.9229 2.9039 25.0029 2.9705 25.0695C3.03711 25.1361 3.11703 25.2027 3.18364 25.2693C5.11513 27.0942 7.57945 28 10.0704 28C11.2826 28 12.4948 27.7869 13.6403 27.3473C14.9191 26.8544 16.1313 26.0951 17.1703 25.0561C18.4757 23.7507 19.3416 22.1922 19.7812 20.5271H19.7412Z" fill="#0C0C1C"/>
<path d="M8.27212 7.47288C8.27212 7.47288 8.24548 7.60609 8.23216 7.67269C8.07231 8.33873 7.97907 9.0314 7.95243 9.72407C7.95243 9.83064 7.95243 9.9372 7.95243 10.0438C7.95243 10.1903 7.95243 10.3501 7.95243 10.4967C7.95243 10.6032 7.96575 10.7231 7.97907 10.8297C8.36537 10.2835 8.80495 9.77736 9.28449 9.28449C10.55 8.01903 12.0285 7.08658 13.6004 6.48715C13.6803 6.46051 13.7469 6.43387 13.8268 6.40723C13.8535 6.40723 13.8668 6.39391 13.8801 6.38059L13.9467 6.35395C13.9467 6.35395 13.9867 6.34063 14.0133 6.32731H14.04C14.04 6.32731 14.1199 6.30067 14.1598 6.27402C14.2131 6.2607 14.2531 6.24738 14.3064 6.23406H14.3597C14.3597 6.23406 14.3996 6.20742 14.4129 6.20742H14.4396C14.4396 6.20742 14.4529 6.20742 14.4662 6.1941H14.4929C14.5861 6.15414 14.6927 6.1275 14.7859 6.10086C14.8658 6.07421 14.9458 6.06089 15.0257 6.04757C15.0523 6.04757 15.0657 6.04757 15.079 6.03425C15.0923 6.03425 15.1189 6.03425 15.1323 6.02093C15.1722 6.02093 15.2122 6.00761 15.2521 5.99429C15.3321 5.98097 15.412 5.95433 15.4919 5.94101C15.5718 5.92769 15.6518 5.91437 15.7317 5.90105C15.7716 5.90105 15.7983 5.88773 15.8383 5.87441H15.8649C15.8649 5.87441 15.9315 5.86108 15.9715 5.84776C16.0514 5.83444 16.1313 5.82112 16.2112 5.8078C16.3711 5.78116 16.5309 5.76784 16.6908 5.75452C16.9305 5.72788 17.1703 5.71456 17.4101 5.70124C17.5966 5.70124 17.7831 5.70124 17.9696 5.70124C18.236 5.70124 18.5024 5.70124 18.7555 5.72788C19.5414 5.78116 20.3406 5.90105 21.0999 6.11418H21.1132C23.138 6.66032 25.0561 7.71265 26.6546 9.31113C27.1475 9.79068 27.5737 10.3102 27.96 10.8563C27.9867 10.5899 27.9867 10.3235 27.9867 10.0571C27.9867 7.57945 27.0676 5.11513 25.2559 3.18363C25.1893 3.11703 25.1227 3.03711 25.0561 2.9705C24.9895 2.9039 24.9229 2.8373 24.843 2.77069C22.9248 0.919125 20.4738 0 18.0095 0C16.784 0 15.5585 0.21313 14.3996 0.652712C13.1075 1.14558 11.9087 1.90485 10.8696 2.94386C9.56423 4.24929 8.69838 5.8078 8.2588 7.47288H8.27212Z" fill="#0C0C1C"/>
<path d="M2.94386 17.1304C4.24929 18.4358 5.8078 19.3016 7.47288 19.7412C8.31208 19.9676 9.17793 20.0742 10.0304 20.0742C10.2969 20.0742 10.5633 20.0742 10.8164 20.0476C10.2702 19.6613 9.76403 19.2217 9.27117 18.7422C8.00571 17.4767 7.07326 15.9981 6.47383 14.4263C5.94101 13.0276 5.6746 11.5357 5.6746 10.0571C5.6746 9.00476 5.8078 7.93911 6.07421 6.91342C6.60704 4.87536 7.67269 2.95718 9.25785 1.35871C9.73739 0.879163 10.2436 0.452903 10.7631 0.0799244C10.7631 0.0799244 10.7897 0.0666038 10.803 0.0532831C10.5366 0.0266418 10.2702 0.0266418 10.0038 0.0266418C7.52617 0.0266418 5.04852 0.932446 3.11703 2.75737C3.05043 2.82398 2.9705 2.89058 2.9039 2.95718C2.8373 3.02379 2.77069 3.09039 2.70409 3.17031C0.905804 5.07517 0 7.55281 0 10.0304C0 11.2426 0.21313 12.4548 0.652712 13.6137C1.14558 14.8925 1.90485 16.1047 2.94386 17.1437V17.1304Z" fill="#0C0C1C"/>
<path d="M25.0695 10.883C23.764 9.57755 22.2055 8.7117 20.5404 8.27212C19.9144 8.09895 19.275 8.00571 18.6223 7.95243C18.4091 7.93911 18.196 7.92579 17.9696 7.92579C17.823 7.92579 17.6632 7.92579 17.5167 7.92579C17.3968 7.92579 17.2902 7.93911 17.1703 7.95243C17.7165 8.33873 18.236 8.77831 18.7155 9.27117C19.3416 9.89724 19.9011 10.5899 20.3673 11.3092C20.8335 12.0285 21.2198 12.8011 21.5128 13.5871C22.0457 14.999 22.3121 16.4776 22.3121 17.9562C22.3121 18.3559 22.2854 18.7422 22.2588 19.1418C22.2322 19.4082 22.2055 19.6613 22.1522 19.9277C22.0856 20.3273 22.0057 20.7136 21.8991 21.0999C21.3663 23.138 20.3007 25.0695 18.7155 26.6546C18.236 27.1342 17.7165 27.5737 17.1703 27.96C17.4367 27.9867 17.7031 27.9867 17.9696 27.9867C20.4472 27.9867 22.9115 27.0809 24.843 25.2559C24.9096 25.1893 24.9762 25.1227 25.0561 25.0561C25.1361 24.9895 25.1893 24.9229 25.2559 24.843C27.0809 22.9115 27.9867 20.4472 27.9867 17.9696C27.9867 16.7574 27.7736 15.5452 27.334 14.3996C26.8411 13.1075 26.0818 11.9087 25.0428 10.8696L25.0695 10.883Z" fill="#0C0C1C"/>
</g>
<defs>
<clipPath id="clip0_405_10450">
<rect width="28" height="28" fill="white"/>
</clipPath>
</defs>
</svg>
