<svg width="59" height="60" viewBox="0 0 59 60" fill="none" xmlns="http://www.w3.org/2000/svg">
<path d="M33.9993 59.6654C40.5414 59.6654 46.8154 57.0666 51.4413 52.4407C56.0672 47.8148 58.666 41.5408 58.666 34.9987C58.666 28.4567 56.0672 22.1827 51.4413 17.5568C46.8154 12.9309 40.5414 10.3321 33.9993 10.3321C32.6061 10.3293 31.2152 10.4462 29.842 10.6814C29.3194 10.773 28.8545 11.0685 28.5497 11.5028C28.2449 11.9371 28.1251 12.4748 28.2167 12.9974C28.3083 13.5201 28.6037 13.9849 29.0381 14.2897C29.4724 14.5945 30.01 14.7143 30.5327 14.6227C31.6779 14.4274 32.8376 14.3302 33.9993 14.3321C38.0868 14.3321 42.0825 15.5442 45.4811 17.815C48.8797 20.0859 51.5286 23.3136 53.0929 27.09C54.6571 30.8663 55.0663 35.0217 54.2689 39.0306C53.4715 43.0396 51.5032 46.722 48.6129 49.6123C45.7226 52.5026 42.0402 54.4709 38.0312 55.2683C34.0223 56.0657 29.8669 55.6565 26.0906 54.0923C22.3142 52.528 19.0865 49.8792 16.8156 46.4805C14.5448 43.0819 13.3327 39.0862 13.3327 34.9987C13.3259 33.454 13.505 31.9141 13.866 30.4121C13.9333 30.1557 13.949 29.8885 13.9121 29.626C13.8753 29.3635 13.7866 29.111 13.6513 28.8831C13.5159 28.6552 13.3367 28.4564 13.1238 28.2984C12.911 28.1404 12.6689 28.0263 12.4116 27.9627C12.1543 27.899 11.8869 27.8872 11.625 27.9278C11.3631 27.9685 11.1118 28.0608 10.8859 28.1993C10.6599 28.3379 10.4638 28.52 10.3089 28.7351C10.1539 28.9502 10.0433 29.1939 9.98335 29.4521C9.54665 31.2684 9.32998 33.1307 9.33802 34.9987C9.34507 41.5377 11.9454 47.8068 16.5686 52.431C21.1918 57.0553 27.4604 59.6569 33.9993 59.6654Z" fill="#DCFD68"/>
<path d="M34 49.0004C37.713 49.0004 41.274 47.5254 43.8995 44.8999C46.525 42.2744 48 38.7134 48 35.0004C48 31.2873 46.525 27.7264 43.8995 25.1009C41.274 22.4754 37.713 21.0004 34 21.0004C33.3471 20.9955 32.6947 21.0383 32.048 21.1284C31.5232 21.2076 31.0514 21.492 30.7363 21.9191C30.4213 22.3462 30.2888 22.8809 30.368 23.4057C30.4472 23.9305 30.7316 24.4023 31.1587 24.7174C31.5858 25.0324 32.1206 25.1649 32.6453 25.0857C33.0941 25.0235 33.5469 24.9949 34 25.0004C35.9778 25.0004 37.9112 25.5869 39.5557 26.6857C41.2002 27.7845 42.4819 29.3463 43.2388 31.1735C43.9957 33.0008 44.1937 35.0115 43.8079 36.9513C43.422 38.8911 42.4696 40.6729 41.0711 42.0714C39.6725 43.47 37.8907 44.4224 35.9509 44.8082C34.0111 45.1941 32.0004 44.9961 30.1732 44.2392C28.3459 43.4823 26.7841 42.2006 25.6853 40.5561C24.5865 38.9116 24 36.9782 24 35.0004C23.9955 34.1723 24.1059 33.3475 24.328 32.5497C24.4097 32.2518 24.4219 31.9392 24.3636 31.6358C24.3053 31.3325 24.1781 31.0466 23.9918 30.8003C23.8055 30.5539 23.565 30.3537 23.289 30.215C23.013 30.0763 22.7089 30.0029 22.4 30.0004C21.9334 29.9981 21.4808 30.1597 21.1211 30.457C20.7615 30.7542 20.5176 31.1683 20.432 31.627C20.1409 32.7277 19.9957 33.8619 20 35.0004C20.0042 38.7121 21.4806 42.2706 24.1052 44.8952C26.7298 47.5198 30.2883 48.9961 34 49.0004Z" fill="#DCFD68"/>
<path d="M33.9994 36.9995C34.3857 37 34.7639 36.8886 35.0882 36.6788C35.4126 36.469 35.6692 36.1697 35.8272 35.8172C35.9851 35.4646 36.0376 35.0739 35.9782 34.6922C35.9189 34.3105 35.7502 33.9541 35.4927 33.6662L23.1727 19.8368C22.9976 19.6407 22.7856 19.481 22.5488 19.3669C22.312 19.2527 22.055 19.1863 21.7925 19.1714C21.53 19.1566 21.2672 19.1935 21.019 19.2803C20.7708 19.367 20.5421 19.5017 20.346 19.6768C20.1499 19.8519 19.9902 20.0639 19.876 20.3008C19.7619 20.5376 19.6955 20.7946 19.6806 21.057C19.6657 21.3195 19.7027 21.5823 19.7895 21.8305C19.8762 22.0787 20.0109 22.3074 20.186 22.5035L32.506 36.3328C32.6938 36.543 32.924 36.7111 33.1813 36.826C33.4387 36.9409 33.7175 37 33.9994 36.9995Z" fill="#DCFD68"/>
<path d="M12.2531 25.0555C12.3847 25.0563 12.516 25.0438 12.6451 25.0182L22.0717 23.1329C22.4595 23.0556 22.8156 22.8652 23.0952 22.5856C23.3747 22.3061 23.5652 21.9499 23.6424 21.5622L25.5277 12.1355C25.5922 11.8129 25.576 11.4793 25.4806 11.1644C25.3852 10.8495 25.2137 10.5629 24.9811 10.3302L15.5517 0.900869C15.2958 0.644731 14.9752 0.462868 14.624 0.374681C14.2728 0.286495 13.9043 0.295293 13.5578 0.400137C13.2112 0.504982 12.8996 0.701939 12.6562 0.969998C12.4128 1.23806 12.2467 1.56716 12.1757 1.9222L10.5544 10.0449L2.43174 11.6662C2.07669 11.7372 1.74759 11.9033 1.47953 12.1467C1.21147 12.3901 1.01452 12.7017 0.909672 13.0482C0.804829 13.3948 0.79603 13.7633 0.884216 14.1145C0.972403 14.4657 1.15426 14.7863 1.4104 15.0422L10.8371 24.4715C11.2134 24.8456 11.7224 25.0556 12.2531 25.0555ZM19.9864 19.4715L12.9144 20.8875L6.88774 14.8555L12.6504 13.7035C13.0376 13.6267 13.3933 13.4366 13.6724 13.1575C13.9515 12.8784 14.1415 12.5227 14.2184 12.1355L15.3704 6.37287L21.3997 12.3995L19.9864 19.4715Z" fill="#DCFD68"/>
</svg>
