<svg width="183" height="52" viewBox="0 0 183 52" fill="none" xmlns="http://www.w3.org/2000/svg">
<path d="M70 15H92.8437V18.6694L73.8785 33.9421L73.4841 32.719H92.8437V36.3884H70V32.719L88.9652 17.4463L89.3596 18.6694H70V15Z" fill="white"/>
<path d="M111.786 30.9339H115.927C115.752 32.0578 115.281 33.0606 114.514 33.9421C113.769 34.8237 112.75 35.5179 111.457 36.0248C110.164 36.5317 108.586 36.7851 106.724 36.7851C104.642 36.7851 102.801 36.4545 101.202 35.7934C99.6022 35.1102 98.3532 34.1295 97.4548 32.8512C96.5564 31.573 96.1072 30.0303 96.1072 28.2231C96.1072 26.416 96.5454 24.8733 97.4219 23.595C98.2984 22.2948 99.5146 21.303 101.07 20.6198C102.648 19.9366 104.489 19.595 106.592 19.595C108.74 19.595 110.526 19.9366 111.95 20.6198C113.374 21.303 114.426 22.3388 115.105 23.7273C115.806 25.0937 116.102 26.8457 115.993 28.9835H100.413C100.523 29.8209 100.829 30.5813 101.333 31.2645C101.859 31.9477 102.56 32.4876 103.437 32.8843C104.335 33.281 105.398 33.4793 106.625 33.4793C107.984 33.4793 109.112 33.2479 110.011 32.7851C110.931 32.3003 111.523 31.6832 111.786 30.9339ZM106.395 22.8678C104.817 22.8678 103.535 23.2204 102.549 23.9256C101.563 24.6088 100.928 25.4573 100.643 26.4711H111.753C111.643 25.3691 111.117 24.4986 110.175 23.8595C109.255 23.1983 107.995 22.8678 106.395 22.8678Z" fill="white"/>
<path d="M119.172 19.9587H123.445V36.3884H119.172V19.9587ZM131.038 19.595C132.046 19.595 132.977 19.7273 133.832 19.9917C134.686 20.2562 135.431 20.6639 136.067 21.2149C136.702 21.7658 137.195 22.4711 137.546 23.3306C137.896 24.168 138.072 25.1708 138.072 26.3388V36.3884H133.799V27.0992C133.799 25.7107 133.459 24.697 132.78 24.0579C132.122 23.3967 131.038 23.0661 129.526 23.0661C128.386 23.0661 127.357 23.2865 126.436 23.7273C125.516 24.168 124.771 24.73 124.201 25.4132C123.631 26.0744 123.303 26.7686 123.215 27.4959L123.182 25.8099C123.292 25.0386 123.544 24.2893 123.938 23.562C124.333 22.8347 124.858 22.1736 125.516 21.5785C126.195 20.9614 126.995 20.4766 127.915 20.124C128.836 19.7713 129.876 19.595 131.038 19.595Z" fill="white"/>
<path d="M161.354 29.9091C161.245 31.3416 160.785 32.5758 159.974 33.6116C159.185 34.6474 158.09 35.4408 156.687 35.9917C155.285 36.5207 153.619 36.7851 151.691 36.7851C149.675 36.7851 147.867 36.4656 146.268 35.8264C144.69 35.1653 143.441 34.2066 142.521 32.9504C141.622 31.6722 141.173 30.0964 141.173 28.2231C141.173 26.3499 141.622 24.7741 142.521 23.4959C143.441 22.2176 144.69 21.2479 146.268 20.5868C147.867 19.9256 149.675 19.595 151.691 19.595C153.619 19.595 155.274 19.8705 156.654 20.4215C158.035 20.9504 159.119 21.7218 159.908 22.7355C160.719 23.7493 161.19 24.9725 161.322 26.405H157.41C157.038 25.303 156.347 24.4435 155.34 23.8264C154.332 23.2094 153.115 22.9008 151.691 22.9008C150.552 22.9008 149.511 23.0992 148.569 23.4959C147.648 23.8926 146.903 24.4876 146.334 25.281C145.786 26.0523 145.512 27.0331 145.512 28.2231C145.512 29.3912 145.786 30.3719 146.334 31.1653C146.881 31.9366 147.626 32.5207 148.569 32.9174C149.511 33.292 150.552 33.4793 151.691 33.4793C153.225 33.4793 154.474 33.1708 155.438 32.5537C156.424 31.9366 157.093 31.0551 157.443 29.9091H161.354Z" fill="white"/>
<path d="M163.016 19.9587H167.552L174.618 35.7273L170.937 36.3884L163.016 19.9587ZM183 19.9587L171.693 43H167.256L172.088 33.9421L178.431 19.9587H183Z" fill="white"/>
<circle cx="26" cy="26" r="26" fill="#DCFD68"/>
<g clip-path="url(#clip0_405_10446)">
<path d="M31.7412 32.5271C31.7678 32.4472 31.7812 32.3673 31.7945 32.3007C31.981 31.5414 32.0742 30.7555 32.0742 29.9696C32.0742 29.823 32.0742 29.6632 32.0742 29.5167C32.0742 29.3968 32.0609 29.2902 32.0476 29.1703C31.6613 29.7165 31.2217 30.236 30.7421 30.7155C29.4767 31.981 27.9981 32.9134 26.4263 33.5128C26.3463 33.5395 26.2531 33.5661 26.1732 33.6061C25.5071 33.8459 24.8278 34.019 24.1351 34.1389C23.4424 34.2588 22.7498 34.3121 22.0571 34.3121C21.804 34.3121 21.5509 34.3121 21.2978 34.2854C21.1646 34.2854 21.0181 34.2588 20.8849 34.2588C20.2322 34.1922 19.5661 34.0723 18.9267 33.9125H18.9134C16.8887 33.3796 14.9572 32.314 13.372 30.7155C12.8792 30.2226 12.4529 29.7165 12.0666 29.1703C12.04 29.4367 12.04 29.7031 12.04 29.9696C12.04 32.4472 12.9458 34.9248 14.7707 36.8563C14.8373 36.9229 14.9039 37.0029 14.9705 37.0695C15.0371 37.1361 15.117 37.2027 15.1836 37.2693C17.1151 39.0942 19.5794 40 22.0704 40C23.2826 40 24.4948 39.7869 25.6403 39.3473C26.9191 38.8544 28.1313 38.0951 29.1703 37.0561C30.4757 35.7507 31.3416 34.1922 31.7812 32.5271H31.7412Z" fill="#0C0C1C"/>
<path d="M20.2721 19.4729C20.2721 19.4729 20.2455 19.6061 20.2322 19.6727C20.0723 20.3387 19.9791 21.0314 19.9524 21.7241C19.9524 21.8306 19.9524 21.9372 19.9524 22.0438C19.9524 22.1903 19.9524 22.3501 19.9524 22.4967C19.9524 22.6032 19.9657 22.7231 19.9791 22.8297C20.3654 22.2835 20.8049 21.7774 21.2845 21.2845C22.5499 20.019 24.0285 19.0866 25.6004 18.4872C25.6803 18.4605 25.7469 18.4339 25.8268 18.4072C25.8535 18.4072 25.8668 18.3939 25.8801 18.3806L25.9467 18.3539C25.9467 18.3539 25.9867 18.3406 26.0133 18.3273H26.04C26.04 18.3273 26.1199 18.3007 26.1598 18.274C26.2131 18.2607 26.2531 18.2474 26.3064 18.2341H26.3597C26.3597 18.2341 26.3996 18.2074 26.4129 18.2074H26.4396C26.4396 18.2074 26.4529 18.2074 26.4662 18.1941H26.4929C26.5861 18.1541 26.6927 18.1275 26.7859 18.1009C26.8658 18.0742 26.9458 18.0609 27.0257 18.0476C27.0523 18.0476 27.0656 18.0476 27.079 18.0343C27.0923 18.0343 27.1189 18.0343 27.1323 18.0209C27.1722 18.0209 27.2122 18.0076 27.2521 17.9943C27.3321 17.981 27.412 17.9543 27.4919 17.941C27.5718 17.9277 27.6518 17.9144 27.7317 17.901C27.7716 17.901 27.7983 17.8877 27.8382 17.8744H27.8649C27.8649 17.8744 27.9315 17.8611 27.9715 17.8478C28.0514 17.8344 28.1313 17.8211 28.2112 17.8078C28.3711 17.7812 28.5309 17.7678 28.6908 17.7545C28.9305 17.7279 29.1703 17.7146 29.4101 17.7012C29.5966 17.7012 29.7831 17.7012 29.9695 17.7012C30.236 17.7012 30.5024 17.7012 30.7555 17.7279C31.5414 17.7812 32.3406 17.901 33.0999 18.1142H33.1132C35.138 18.6603 37.0561 19.7127 38.6546 21.3111C39.1475 21.7907 39.5737 22.3102 39.96 22.8563C39.9867 22.5899 39.9867 22.3235 39.9867 22.0571C39.9867 19.5794 39.0676 17.1151 37.2559 15.1836C37.1893 15.117 37.1227 15.0371 37.0561 14.9705C36.9895 14.9039 36.9229 14.8373 36.843 14.7707C34.9248 12.9191 32.4738 12 30.0095 12C28.784 12 27.5585 12.2131 26.3996 12.6527C25.1075 13.1456 23.9087 13.9049 22.8696 14.9439C21.5642 16.2493 20.6984 17.8078 20.2588 19.4729H20.2721Z" fill="#0C0C1C"/>
<path d="M14.9439 29.1304C16.2493 30.4358 17.8078 31.3016 19.4729 31.7412C20.3121 31.9676 21.1779 32.0742 22.0304 32.0742C22.2969 32.0742 22.5633 32.0742 22.8164 32.0476C22.2702 31.6613 21.764 31.2217 21.2712 30.7422C20.0057 29.4767 19.0733 27.9981 18.4738 26.4263C17.941 25.0276 17.6746 23.5357 17.6746 22.0571C17.6746 21.0048 17.8078 19.9391 18.0742 18.9134C18.607 16.8754 19.6727 14.9572 21.2578 13.3587C21.7374 12.8792 22.2436 12.4529 22.7631 12.0799C22.7631 12.0799 22.7897 12.0666 22.803 12.0533C22.5366 12.0266 22.2702 12.0266 22.0038 12.0266C19.5262 12.0266 17.0485 12.9324 15.117 14.7574C15.0504 14.824 14.9705 14.8906 14.9039 14.9572C14.8373 15.0238 14.7707 15.0904 14.7041 15.1703C12.9058 17.0752 12 19.5528 12 22.0304C12 23.2426 12.2131 24.4548 12.6527 25.6137C13.1456 26.8925 13.9049 28.1047 14.9439 29.1437V29.1304Z" fill="#0C0C1C"/>
<path d="M37.0695 22.883C35.764 21.5775 34.2055 20.7117 32.5404 20.2721C31.9144 20.099 31.275 20.0057 30.6223 19.9524C30.4091 19.9391 30.196 19.9258 29.9696 19.9258C29.823 19.9258 29.6632 19.9258 29.5167 19.9258C29.3968 19.9258 29.2902 19.9391 29.1703 19.9524C29.7165 20.3387 30.236 20.7783 30.7155 21.2712C31.3416 21.8972 31.9011 22.5899 32.3673 23.3092C32.8335 24.0285 33.2198 24.8011 33.5128 25.5871C34.0457 26.999 34.3121 28.4776 34.3121 29.9562C34.3121 30.3559 34.2854 30.7422 34.2588 31.1418C34.2322 31.4082 34.2055 31.6613 34.1522 31.9277C34.0856 32.3273 34.0057 32.7136 33.8991 33.0999C33.3663 35.138 32.3007 37.0695 30.7155 38.6546C30.236 39.1342 29.7165 39.5737 29.1703 39.96C29.4367 39.9867 29.7031 39.9867 29.9696 39.9867C32.4472 39.9867 34.9115 39.0809 36.843 37.2559C36.9096 37.1893 36.9762 37.1227 37.0561 37.0561C37.1361 36.9895 37.1893 36.9229 37.2559 36.843C39.0809 34.9115 39.9867 32.4472 39.9867 29.9696C39.9867 28.7574 39.7736 27.5452 39.334 26.3996C38.8411 25.1075 38.0818 23.9087 37.0428 22.8696L37.0695 22.883Z" fill="#0C0C1C"/>
</g>
<defs>
<clipPath id="clip0_405_10446">
<rect width="28" height="28" fill="white" transform="translate(12 12)"/>
</clipPath>
</defs>
</svg>
