<svg width="129" height="125" viewBox="0 0 129 125" fill="none" xmlns="http://www.w3.org/2000/svg">
<g opacity="0.1">
<path d="M144.25 -19.25C111.25 -52.25 57.7501 -52.25 24.75 -19.25C-8.25001 13.7501 -8.25001 67.2499 24.75 100.25C57.7501 133.25 111.25 133.25 144.25 100.25C177.25 67.2499 177.25 13.7501 144.25 -19.25ZM141.76 71.5936C118.322 95.0316 79.5433 94.2466 55.1483 69.8517C30.7534 45.4567 29.9759 6.6701 53.4064 -16.7604C76.8369 -40.1909 115.616 -39.4208 140.018 -15.0184C164.421 9.38397 165.198 48.1556 141.76 71.5936ZM38.424 86.576C8.72101 56.8729 7.77153 9.67554 36.3008 -18.8537C59.3425 -41.8954 94.5555 -45.6934 122.898 -30.6736C97.1049 -42.9795 65.2786 -38.4564 43.9116 -17.0893C16.8028 10.0194 16.8028 53.9796 43.9116 81.0884C71.0204 108.197 114.981 108.197 142.089 81.0884C163.449 59.7289 167.98 27.91 155.674 2.11708C170.693 30.4594 166.895 65.6724 143.854 88.7142C115.324 117.243 68.1271 116.294 38.424 86.5909L38.424 86.576Z" fill="#0C0C1C"/>
<path d="M63.0808 61.9196C84.2983 83.1371 118.711 83.1446 139.936 61.9196C161.161 40.6946 161.154 6.29651 139.929 -14.9285C118.704 -36.1535 84.3058 -36.146 63.0883 -14.9285C41.8708 6.28904 41.8633 40.7021 63.0808 61.9196ZM138.307 -13.3061C157.408 5.79561 158.021 36.1491 139.675 54.4957C121.328 72.8424 90.9746 72.2293 71.8728 53.1276C52.7711 34.0258 52.158 3.67236 70.5047 -14.6743C88.8513 -33.0209 119.212 -32.4154 138.314 -13.3136L138.307 -13.3061Z" fill="#0C0C1C"/>
<path d="M82.2497 42.7503C97.5834 58.0841 122.434 58.0841 137.768 42.7503C153.102 27.4166 153.102 2.56565 137.768 -12.7681C122.434 -28.1018 97.5834 -28.1018 82.2497 -12.7681C66.9159 2.56565 66.9159 27.4166 82.2497 42.7503ZM136.602 -11.6018C150.403 2.19931 150.844 24.1271 137.589 37.3824C124.333 50.6378 102.406 50.1967 88.6044 36.3956C74.8033 22.5944 74.3623 0.666694 87.6176 -12.5886C100.873 -25.844 122.801 -25.4029 136.602 -11.6018Z" fill="#0C0C1C"/>
<path d="M101.419 23.5813C110.861 33.0238 126.172 33.0238 135.615 23.5813C145.057 14.1388 145.057 -1.17246 135.615 -10.6149C126.172 -20.0574 110.861 -20.0574 101.419 -10.6149C91.9762 -1.17246 91.9762 14.1388 101.419 23.5813ZM134.897 -9.89721C143.398 -1.39674 143.667 12.1053 135.503 20.2693C127.339 28.4334 113.829 28.1568 105.336 19.6638C96.8432 11.1708 96.5666 -2.33875 104.731 -10.5028C112.895 -18.6668 126.404 -18.3902 134.897 -9.89721Z" fill="#0C0C1C"/>
<path d="M114.525 10.4755C120.251 16.2023 129.35 16.3892 134.852 10.8867C140.355 5.38419 140.168 -3.71438 134.441 -9.44116C128.714 -15.1679 119.616 -15.3548 114.113 -9.85235C108.611 -4.34985 108.798 4.74871 114.525 10.4755Z" fill="#0C0C1C"/>
</g>
</svg>
