<svg width="14" height="18" viewBox="0 0 14 18" fill="none" xmlns="http://www.w3.org/2000/svg">
<path d="M0.0770264 6.45715C0.0770264 5.67915 0.213026 4.94418 0.481026 4.25818C0.751026 3.57118 1.12403 2.96818 1.60203 2.45618C2.08103 1.94418 2.62503 1.50108 3.24603 1.12708C3.86603 0.751076 4.53203 0.471081 5.24803 0.283081C5.96103 0.0960808 6.68803 0.0020752 7.43303 0.0020752C8.57203 0.0020752 9.63203 0.243145 10.615 0.723145C11.594 1.20214 12.391 1.90014 13.006 2.81714C13.62 3.73214 13.925 4.76714 13.925 5.92114C13.925 6.61314 13.857 7.29015 13.718 7.95215C13.58 8.61515 13.366 9.25511 13.072 9.86511C12.776 10.4781 12.418 11.0172 11.99 11.4822C11.564 11.9462 11.043 12.3171 10.422 12.5961C9.80103 12.8731 9.12003 13.0131 8.37703 13.0131C7.88803 13.0131 7.40003 12.8981 6.91803 12.6671C6.43603 12.4371 6.09003 12.1211 5.88203 11.7161C5.80903 11.9971 5.70903 12.4031 5.57603 12.9341C5.44803 13.4641 5.36203 13.8062 5.32403 13.9612C5.28403 14.1152 5.21003 14.3721 5.10203 14.7281C4.99403 15.0841 4.90003 15.3421 4.82103 15.4971C4.74203 15.6501 4.62803 15.8751 4.47703 16.1711C4.32503 16.4671 4.15703 16.7472 3.97903 17.0092C3.79803 17.2712 3.57403 17.5841 3.30703 17.9441L3.15803 17.9971L3.05903 17.8892C2.95203 16.7562 2.89703 16.0781 2.89703 15.8541C2.89703 15.1911 2.97603 14.4471 3.13203 13.6211C3.28503 12.7961 3.52703 11.7591 3.85203 10.5121C4.17703 9.26608 4.36303 8.53316 4.41303 8.31616C4.18403 7.84916 4.06803 7.23914 4.06803 6.48914C4.06803 5.89014 4.25503 5.32915 4.63003 4.80115C5.00603 4.27515 5.48103 4.01208 6.05703 4.01208C6.49803 4.01208 6.84003 4.15817 7.08503 4.45117C7.33103 4.74317 7.45103 5.11118 7.45103 5.56018C7.45103 6.03618 7.29303 6.7251 6.97503 7.6261C6.65703 8.5281 6.49903 9.20107 6.49903 9.64807C6.49903 10.1011 6.66103 10.4801 6.98503 10.7771C7.30903 11.0761 7.70403 11.2261 8.16403 11.2261C8.56003 11.2261 8.92703 11.1361 9.26803 10.9551C9.60903 10.7761 9.89103 10.5302 10.117 10.2222C10.344 9.91117 10.548 9.56912 10.723 9.19312C10.9 8.81711 11.038 8.42007 11.134 7.99707C11.23 7.57507 11.304 7.17412 11.35 6.79712C11.399 6.41812 11.42 6.06009 11.42 5.72009C11.42 4.47309 11.024 3.50118 10.237 2.80518C9.44603 2.10918 8.41603 1.76306 7.14903 1.76306C5.70803 1.76306 4.50303 2.22906 3.53803 3.16406C2.57203 4.09606 2.08603 5.28114 2.08603 6.71814C2.08603 7.03514 2.13403 7.34109 2.22503 7.63708C2.31403 7.93209 2.41103 8.16706 2.51603 8.34106C2.62003 8.51206 2.71803 8.67913 2.80703 8.83313C2.89703 8.98713 2.94403 9.09709 2.94403 9.16309C2.94403 9.36509 2.89103 9.62813 2.78403 9.95312C2.67303 10.2781 2.54203 10.4401 2.38403 10.4401C2.36903 10.4401 2.30703 10.4291 2.19903 10.4061C1.83103 10.2981 1.50403 10.0961 1.22003 9.80115C0.936026 9.50515 0.715026 9.16317 0.561026 8.77917C0.408026 8.39318 0.290026 8.00411 0.209026 7.61011C0.114026 7.21611 0.0770264 6.83215 0.0770264 6.45715Z" fill="#0C0C1C"/>
</svg>
