<svg width="177" height="88" viewBox="0 0 177 88" fill="none" xmlns="http://www.w3.org/2000/svg">
<g filter="url(#filter0_d_20_1508)">
<path d="M30.7636 60.5V34.3182H49.1727V40.0455H37.8716V44.5455H48.0477V50.2727H37.8716V60.5H30.7636ZM58.535 34.3182V60.5H51.427V34.3182H58.535ZM61.5436 60.5V34.3182H68.6516V54.7727H79.2368V60.5H61.5436ZM88.858 34.3182V60.5H81.75V34.3182H88.858Z" fill="white"/>
<path d="M30.7636 60.5V34.3182H49.1727V40.0455H37.8716V44.5455H48.0477V50.2727H37.8716V60.5H30.7636ZM58.535 34.3182V60.5H51.427V34.3182H58.535ZM61.5436 60.5V34.3182H68.6516V54.7727H79.2368V60.5H61.5436ZM88.858 34.3182V60.5H81.75V34.3182H88.858Z" fill="url(#paint0_linear_20_1508)" fill-opacity="0.8"/>
<path d="M98.6784 60.5V34.3182H109.98C111.923 34.3182 113.623 34.7017 115.08 35.4688C116.538 36.2358 117.671 37.3139 118.481 38.7031C119.291 40.0923 119.695 41.7159 119.695 43.5739C119.695 45.4489 119.278 47.0724 118.443 48.4446C117.616 49.8168 116.453 50.8736 114.953 51.6151C113.461 52.3565 111.718 52.7273 109.724 52.7273H102.974V47.2045H108.292C109.127 47.2045 109.839 47.0597 110.427 46.7699C111.024 46.4716 111.48 46.0497 111.795 45.5043C112.119 44.9588 112.281 44.3153 112.281 43.5739C112.281 42.8239 112.119 42.1847 111.795 41.6562C111.48 41.1193 111.024 40.7102 110.427 40.429C109.839 40.1392 109.127 39.9943 108.292 39.9943H105.786V60.5H98.6784ZM146.387 44.1364H139.176C139.125 43.5398 138.989 42.9986 138.767 42.5128C138.554 42.027 138.256 41.6094 137.872 41.2599C137.497 40.902 137.041 40.6293 136.505 40.4418C135.968 40.2457 135.358 40.1477 134.676 40.1477C133.483 40.1477 132.473 40.4375 131.647 41.017C130.828 41.5966 130.206 42.4276 129.78 43.5099C129.362 44.5923 129.154 45.892 129.154 47.4091C129.154 49.0114 129.367 50.3537 129.793 51.4361C130.228 52.5099 130.854 53.3196 131.672 53.8651C132.49 54.402 133.475 54.6705 134.625 54.6705C135.282 54.6705 135.87 54.5895 136.389 54.4276C136.909 54.2571 137.361 54.0142 137.745 53.6989C138.128 53.3835 138.439 53.0043 138.678 52.5611C138.925 52.1094 139.091 51.6023 139.176 51.0398L146.387 51.0909C146.301 52.1989 145.99 53.3281 145.453 54.4787C144.916 55.6207 144.154 56.6776 143.165 57.6491C142.185 58.6122 140.97 59.3878 139.522 59.9759C138.073 60.5639 136.389 60.858 134.472 60.858C132.068 60.858 129.912 60.3423 128.003 59.3111C126.103 58.2798 124.598 56.7628 123.49 54.7599C122.391 52.7571 121.841 50.3068 121.841 47.4091C121.841 44.4943 122.404 42.0398 123.529 40.0455C124.654 38.0426 126.171 36.5298 128.08 35.5071C129.989 34.4759 132.12 33.9602 134.472 33.9602C136.125 33.9602 137.647 34.1861 139.036 34.6378C140.425 35.0895 141.644 35.75 142.692 36.6193C143.74 37.4801 144.584 38.5412 145.223 39.8026C145.862 41.0639 146.25 42.5085 146.387 44.1364Z" fill="white"/>
</g>
<path d="M37.6364 69.9574V68.8636H43.8409V69.9574H41.3352V76.5H40.1619V69.9574H37.6364ZM48.2582 76.6591C47.5688 76.6591 46.9639 76.495 46.4435 76.1669C45.9265 75.8388 45.5221 75.3797 45.2305 74.7898C44.9421 74.1998 44.7979 73.5104 44.7979 72.7216C44.7979 71.9261 44.9421 71.2318 45.2305 70.6385C45.5221 70.0452 45.9265 69.5845 46.4435 69.2564C46.9639 68.9283 47.5688 68.7642 48.2582 68.7642C48.9476 68.7642 49.5508 68.9283 50.0678 69.2564C50.5882 69.5845 50.9925 70.0452 51.2809 70.6385C51.5726 71.2318 51.7184 71.9261 51.7184 72.7216C51.7184 73.5104 51.5726 74.1998 51.2809 74.7898C50.9925 75.3797 50.5882 75.8388 50.0678 76.1669C49.5508 76.495 48.9476 76.6591 48.2582 76.6591ZM48.2582 75.6051C48.7818 75.6051 49.2127 75.4709 49.5508 75.2024C49.8888 74.9339 50.1391 74.581 50.3015 74.1435C50.4639 73.706 50.5451 73.232 50.5451 72.7216C50.5451 72.2112 50.4639 71.7356 50.3015 71.2947C50.1391 70.8539 49.8888 70.4976 49.5508 70.2259C49.2127 69.9541 48.7818 69.8182 48.2582 69.8182C47.7345 69.8182 47.3036 69.9541 46.9656 70.2259C46.6275 70.4976 46.3772 70.8539 46.2148 71.2947C46.0524 71.7356 45.9712 72.2112 45.9712 72.7216C45.9712 73.232 46.0524 73.706 46.2148 74.1435C46.3772 74.581 46.6275 74.9339 46.9656 75.2024C47.3036 75.4709 47.7345 75.6051 48.2582 75.6051ZM52.8333 76.5V75.4062H53.1117C53.3404 75.4062 53.531 75.3615 53.6834 75.272C53.8359 75.1792 53.9585 75.0185 54.0513 74.7898C54.1474 74.5578 54.2203 74.2363 54.2701 73.8253C54.3231 73.411 54.3612 72.884 54.3844 72.2443L54.5236 68.8636H59.6145V76.5H58.4412V69.9574H55.6373L55.5179 72.6818C55.4914 73.3082 55.4351 73.8601 55.3489 74.3374C55.266 74.8113 55.1384 75.209 54.9661 75.5305C54.7971 75.852 54.5717 76.094 54.29 76.2564C54.0082 76.4188 53.6552 76.5 53.231 76.5H52.8333ZM62.7814 71.6278H64.9689C65.8638 71.6278 66.5482 71.8549 67.0222 72.3089C67.4962 72.763 67.7331 73.3381 67.7331 74.0341C67.7331 74.4915 67.6271 74.9074 67.415 75.282C67.2028 75.6532 66.8913 75.9498 66.4803 76.1719C66.0693 76.3906 65.5655 76.5 64.9689 76.5H61.7672V68.8636H62.9405V75.4062H64.9689C65.4329 75.4062 65.8141 75.2836 66.1124 75.0384C66.4107 74.7931 66.5598 74.4782 66.5598 74.0938C66.5598 73.6894 66.4107 73.3596 66.1124 73.1044C65.8141 72.8492 65.4329 72.7216 64.9689 72.7216H62.7814V71.6278ZM69.5192 76.5V68.8636H70.6925V72.1847H71.468L74.2124 68.8636H75.7237L72.6413 72.5426L75.7635 76.5H74.2521L71.7464 73.2784H70.6925V76.5H69.5192ZM79.8265 76.6591C79.1371 76.6591 78.5323 76.495 78.0119 76.1669C77.4949 75.8388 77.0905 75.3797 76.7988 74.7898C76.5105 74.1998 76.3663 73.5104 76.3663 72.7216C76.3663 71.9261 76.5105 71.2318 76.7988 70.6385C77.0905 70.0452 77.4949 69.5845 78.0119 69.2564C78.5323 68.9283 79.1371 68.7642 79.8265 68.7642C80.5159 68.7642 81.1191 68.9283 81.6362 69.2564C82.1565 69.5845 82.5609 70.0452 82.8493 70.6385C83.1409 71.2318 83.2868 71.9261 83.2868 72.7216C83.2868 73.5104 83.1409 74.1998 82.8493 74.7898C82.5609 75.3797 82.1565 75.8388 81.6362 76.1669C81.1191 76.495 80.5159 76.6591 79.8265 76.6591ZM79.8265 75.6051C80.3502 75.6051 80.7811 75.4709 81.1191 75.2024C81.4572 74.9339 81.7074 74.581 81.8699 74.1435C82.0323 73.706 82.1135 73.232 82.1135 72.7216C82.1135 72.2112 82.0323 71.7356 81.8699 71.2947C81.7074 70.8539 81.4572 70.4976 81.1191 70.2259C80.7811 69.9541 80.3502 69.8182 79.8265 69.8182C79.3029 69.8182 78.872 69.9541 78.5339 70.2259C78.1958 70.4976 77.9456 70.8539 77.7832 71.2947C77.6208 71.7356 77.5396 72.2112 77.5396 72.7216C77.5396 73.232 77.6208 73.706 77.7832 74.1435C77.9456 74.581 78.1958 74.9339 78.5339 75.2024C78.872 75.4709 79.3029 75.6051 79.8265 75.6051ZM88.3391 76.5V75.4062H88.6175C88.8462 75.4062 89.0368 75.3615 89.1893 75.272C89.3417 75.1792 89.4644 75.0185 89.5572 74.7898C89.6533 74.5578 89.7262 74.2363 89.7759 73.8253C89.829 73.411 89.8671 72.884 89.8903 72.2443L90.0295 68.8636H95.1204V76.5H93.9471V69.9574H91.1431L91.0238 72.6818C90.9973 73.3082 90.9409 73.8601 90.8548 74.3374C90.7719 74.8113 90.6443 75.209 90.4719 75.5305C90.3029 75.852 90.0775 76.094 89.7958 76.2564C89.5141 76.4188 89.1611 76.5 88.7369 76.5H88.3391ZM97.7553 79.3636C97.5565 79.3636 97.3791 79.3471 97.2234 79.3139C97.0676 79.2841 96.9599 79.2543 96.9002 79.2244L97.1985 78.1903C97.4835 78.2633 97.7354 78.2898 97.9542 78.2699C98.1729 78.25 98.3668 78.1522 98.5359 77.9766C98.7082 77.8042 98.8656 77.5241 99.0082 77.1364L99.2269 76.5398L96.4031 68.8636H97.6758L99.7837 74.9489H99.8633L101.971 68.8636H103.244L100.002 77.6136C99.8567 78.008 99.676 78.3345 99.4606 78.593C99.2451 78.8549 98.9949 79.0488 98.7099 79.1747C98.4281 79.3007 98.11 79.3636 97.7553 79.3636ZM110.447 68.8636V76.5H109.273V68.8636H110.447ZM109.989 72.5028V73.5966C109.724 73.696 109.461 73.7839 109.199 73.8601C108.937 73.933 108.662 73.991 108.373 74.0341C108.085 74.0739 107.769 74.0938 107.424 74.0938C106.559 74.0938 105.864 73.8601 105.341 73.3928C104.82 72.9254 104.56 72.2244 104.56 71.2898V68.8438H105.733V71.2898C105.733 71.6809 105.808 72.0024 105.957 72.2543C106.106 72.5062 106.309 72.6934 106.564 72.8161C106.819 72.9387 107.106 73 107.424 73C107.921 73 108.37 72.9553 108.771 72.8658C109.175 72.773 109.581 72.652 109.989 72.5028ZM112.599 68.8636H113.773V75.4062H116.656V68.8636H117.829V75.4062H120.713V68.8636H121.886V76.5H112.599V68.8636ZM127.231 76.6591C126.495 76.6591 125.86 76.4967 125.327 76.1719C124.796 75.8438 124.387 75.3864 124.099 74.7997C123.814 74.2098 123.671 73.5237 123.671 72.7415C123.671 71.9593 123.814 71.2699 124.099 70.6733C124.387 70.0734 124.788 69.6061 125.302 69.2713C125.819 68.9332 126.422 68.7642 127.111 68.7642C127.509 68.7642 127.902 68.8305 128.29 68.9631C128.677 69.0956 129.03 69.3111 129.349 69.6094C129.667 69.9044 129.92 70.2955 130.109 70.7827C130.298 71.2699 130.393 71.8698 130.393 72.5824V73.0795H124.506V72.0653H129.199C129.199 71.6345 129.113 71.25 128.941 70.9119C128.772 70.5739 128.53 70.3071 128.215 70.1115C127.903 69.916 127.536 69.8182 127.111 69.8182C126.644 69.8182 126.24 69.9342 125.898 70.1662C125.56 70.3949 125.3 70.6932 125.118 71.0611C124.935 71.429 124.844 71.8234 124.844 72.2443V72.9205C124.844 73.4972 124.944 73.986 125.143 74.3871C125.345 74.7848 125.625 75.0881 125.983 75.2969C126.341 75.5024 126.757 75.6051 127.231 75.6051C127.539 75.6051 127.817 75.562 128.066 75.4759C128.318 75.3864 128.535 75.2538 128.717 75.0781C128.899 74.8991 129.04 74.6771 129.14 74.4119L130.273 74.7301C130.154 75.1146 129.953 75.4527 129.672 75.7443C129.39 76.0327 129.042 76.258 128.628 76.4205C128.213 76.5795 127.748 76.6591 127.231 76.6591ZM135.379 76.6591C134.643 76.6591 134.009 76.4967 133.475 76.1719C132.945 75.8438 132.535 75.3864 132.247 74.7997C131.962 74.2098 131.819 73.5237 131.819 72.7415C131.819 71.9593 131.962 71.2699 132.247 70.6733C132.535 70.0734 132.936 69.6061 133.45 69.2713C133.967 68.9332 134.57 68.7642 135.26 68.7642C135.657 68.7642 136.05 68.8305 136.438 68.9631C136.826 69.0956 137.179 69.3111 137.497 69.6094C137.815 69.9044 138.069 70.2955 138.258 70.7827C138.447 71.2699 138.541 71.8698 138.541 72.5824V73.0795H132.655V72.0653H137.348C137.348 71.6345 137.262 71.25 137.089 70.9119C136.92 70.5739 136.678 70.3071 136.363 70.1115C136.052 69.916 135.684 69.8182 135.26 69.8182C134.792 69.8182 134.388 69.9342 134.047 70.1662C133.709 70.3949 133.448 70.6932 133.266 71.0611C133.084 71.429 132.993 71.8234 132.993 72.2443V72.9205C132.993 73.4972 133.092 73.986 133.291 74.3871C133.493 74.7848 133.773 75.0881 134.131 75.2969C134.489 75.5024 134.905 75.6051 135.379 75.6051C135.687 75.6051 135.966 75.562 136.214 75.4759C136.466 75.3864 136.683 75.2538 136.866 75.0781C137.048 74.8991 137.189 74.6771 137.288 74.4119L138.422 74.7301C138.302 75.1146 138.102 75.4527 137.82 75.7443C137.538 76.0327 137.19 76.258 136.776 76.4205C136.362 76.5795 135.896 76.6591 135.379 76.6591Z" fill="#D1D1D1"/>
<defs>
<filter id="filter0_d_20_1508" x="0.763611" y="0.960205" width="175.623" height="86.8977" filterUnits="userSpaceOnUse" color-interpolation-filters="sRGB">
<feFlood flood-opacity="0" result="BackgroundImageFix"/>
<feColorMatrix in="SourceAlpha" type="matrix" values="0 0 0 0 0 0 0 0 0 0 0 0 0 0 0 0 0 0 127 0" result="hardAlpha"/>
<feOffset dy="-3"/>
<feGaussianBlur stdDeviation="15"/>
<feComposite in2="hardAlpha" operator="out"/>
<feColorMatrix type="matrix" values="0 0 0 0 0.217222 0 0 0 0 0.00058338 0 0 0 0 0.35 0 0 0 1 0"/>
<feBlend mode="normal" in2="BackgroundImageFix" result="effect1_dropShadow_20_1508"/>
<feBlend mode="normal" in="SourceGraphic" in2="effect1_dropShadow_20_1508" result="shape"/>
</filter>
<linearGradient id="paint0_linear_20_1508" x1="88.5" y1="25.5" x2="88.5" y2="70.5" gradientUnits="userSpaceOnUse">
<stop stop-color="#A145BD"/>
<stop offset="1" stop-color="#370059"/>
</linearGradient>
</defs>
</svg>
